# xmcd
# 
# Track frame offsets:
#     150
#     15105
#     28818
#     58716
#     71590
#     129776
#     173776
#     188668
#     206093
#     236855
#     257655
#     274888
#     289359
# 
# Disc length: 4128
# 
# Revision: 0
# Processed by: cddbd v1.5.2PL0 Copyright (c) Steve Scherf et al.
# Submitted via: fre:ac v1.0.31
# 
DISCID=bc101e0d
DTITLE=Paata Demurishvili - Georgien Swing Duo and Friends
DYEAR=2000
DGENRE=Folk
TTITLE0=Lady Be Good
TTITLE1=Don Juan's Last Love
TTITLE2=Satin Doll
TTITLE3=Tango Carmen
TTITLE4=Autumn Leaves
TTITLE5=Summertime
TTITLE6=Sweet Georgia Brown
TTITLE7=C-May-Blues
TTITLE8=The Girl From Ipamena
TTITLE9=Chardasch
TTITLE10=Suliko
TTITLE11=Otschi Tschornie
TTITLE12=Misty
EXTD=
EXTT0=
EXTT1=
EXTT2=
EXTT3=
EXTT4=
EXTT5=
EXTT6=
EXTT7=
EXTT8=
EXTT9=
EXTT10=
EXTT11=
EXTT12=
PLAYORDER=
